<?xml version="1.0" encoding="UTF-8" standalone="yes"?><svg xmlns="http://www.w3.org/2000/svg" xmlns:xlink="http://www.w3.org/1999/xlink" height="260pt" style="width:233px;height:260px;" version="1.1" viewBox="0 0 233 260" width="233pt"><defs><filter height="300%" id="f1" width="300%" x="-1" y="-1"><feGaussianBlur result="blurOut" stdDeviation="2.0"/><feColorMatrix in="blurOut" result="blurOut2" type="matrix" values="0 0 0 0 0 0 0 0 0 0 0 0 0 0 0 0 0 0 .4 0"/><feOffset dx="4.0" dy="4.0" in="blurOut2" result="blurOut3"/><feBlend in="SourceGraphic" in2="blurOut3" mode="normal"/></filter></defs><g><polygon fill="#FFFFFF" filter="url(#f1)" points="22,24,215,24,222,47.6094,226,47.6094,226,253,22,253,22,24" style="stroke: #000000; stroke-width: 2.0;"/><line style="stroke: #000000; stroke-width: 2.0;" x1="22" x2="222" y1="47.6094" y2="47.6094"/><text fill="#000000" font-family="sans-serif" font-size="14" font-weight="bold" lengthAdjust="spacingAndGlyphs" textLength="187" x="25" y="41">UML.Basics.Generalization</text><rect fill="#FEFECE" filter="url(#f1)" height="48" style="stroke: #A80036; stroke-width: 1.5;" width="90" x="79" y="61"/><ellipse cx="94" cy="77" fill="#ADD1B2" rx="11" ry="11" style="stroke: #A80036; stroke-width: 1.0;"/><path d="M96.7656,72.875 Q96.9219,72.6563 97.1094,72.5469 Q97.2969,72.4375 97.5156,72.4375 Q97.8906,72.4375 98.125,72.6953 Q98.3594,72.9531 98.3594,73.5625 L98.3594,75.0156 Q98.3594,75.625 98.125,75.8906 Q97.8906,76.1563 97.5156,76.1563 Q97.1719,76.1563 96.9688,75.9531 Q96.7656,75.7656 96.6563,75.25 Q96.6094,74.8906 96.4219,74.7031 Q96.0938,74.3281 95.4844,74.1094 Q94.875,73.8906 94.25,73.8906 Q93.4844,73.8906 92.8516,74.2188 Q92.2188,74.5469 91.7266,75.2969 Q91.2344,76.0469 91.2344,77.0781 L91.2344,78.1719 Q91.2344,79.4063 92.125,80.2266 Q93.0156,81.0469 94.6094,81.0469 Q95.5469,81.0469 96.2031,80.7969 Q96.5938,80.6406 97.0156,80.2031 Q97.2813,79.9375 97.4297,79.8594 Q97.5781,79.7813 97.7813,79.7813 Q98.1094,79.7813 98.3672,80.0391 Q98.625,80.2969 98.625,80.6406 Q98.625,80.9844 98.2813,81.3906 Q97.7813,81.9688 96.9844,82.2969 Q95.9063,82.75 94.6094,82.75 Q93.0938,82.75 91.8906,82.125 Q90.9063,81.625 90.2188,80.5547 Q89.5313,79.4844 89.5313,78.2031 L89.5313,77.0469 Q89.5313,75.7188 90.1484,74.5703 Q90.7656,73.4219 91.8594,72.8047 Q92.9531,72.1875 94.1875,72.1875 Q94.9219,72.1875 95.5703,72.3516 Q96.2188,72.5156 96.7656,72.875 Z "/><text fill="#000000" font-family="sans-serif" font-size="12" lengthAdjust="spacingAndGlyphs" textLength="58" x="108" y="81.4531">Response</text><line style="stroke: #A80036; stroke-width: 1.5;" x1="80" x2="168" y1="93" y2="93"/><line style="stroke: #A80036; stroke-width: 1.5;" x1="80" x2="168" y1="101" y2="101"/><rect fill="#FEFECE" filter="url(#f1)" height="48" style="stroke: #A80036; stroke-width: 1.5;" width="112" x="68" y="189"/><ellipse cx="83" cy="205" fill="#ADD1B2" rx="11" ry="11" style="stroke: #A80036; stroke-width: 1.0;"/><path d="M85.7656,200.875 Q85.9219,200.6563 86.1094,200.5469 Q86.2969,200.4375 86.5156,200.4375 Q86.8906,200.4375 87.125,200.6953 Q87.3594,200.9531 87.3594,201.5625 L87.3594,203.0156 Q87.3594,203.625 87.125,203.8906 Q86.8906,204.1563 86.5156,204.1563 Q86.1719,204.1563 85.9688,203.9531 Q85.7656,203.7656 85.6563,203.25 Q85.6094,202.8906 85.4219,202.7031 Q85.0938,202.3281 84.4844,202.1094 Q83.875,201.8906 83.25,201.8906 Q82.4844,201.8906 81.8516,202.2188 Q81.2188,202.5469 80.7266,203.2969 Q80.2344,204.0469 80.2344,205.0781 L80.2344,206.1719 Q80.2344,207.4063 81.125,208.2266 Q82.0156,209.0469 83.6094,209.0469 Q84.5469,209.0469 85.2031,208.7969 Q85.5938,208.6406 86.0156,208.2031 Q86.2813,207.9375 86.4297,207.8594 Q86.5781,207.7813 86.7813,207.7813 Q87.1094,207.7813 87.3672,208.0391 Q87.625,208.2969 87.625,208.6406 Q87.625,208.9844 87.2813,209.3906 Q86.7813,209.9688 85.9844,210.2969 Q84.9063,210.75 83.6094,210.75 Q82.0938,210.75 80.8906,210.125 Q79.9063,209.625 79.2188,208.5547 Q78.5313,207.4844 78.5313,206.2031 L78.5313,205.0469 Q78.5313,203.7188 79.1484,202.5703 Q79.7656,201.4219 80.8594,200.8047 Q81.9531,200.1875 83.1875,200.1875 Q83.9219,200.1875 84.5703,200.3516 Q85.2188,200.5156 85.7656,200.875 Z "/><text fill="#000000" font-family="sans-serif" font-size="12" lengthAdjust="spacingAndGlyphs" textLength="80" x="97" y="209.4531">HttpResponse</text><line style="stroke: #A80036; stroke-width: 1.5;" x1="69" x2="179" y1="221" y2="221"/><line style="stroke: #A80036; stroke-width: 1.5;" x1="69" x2="179" y1="229" y2="229"/><path d="M124,129.141 C124,149.068 124,171.948 124,188.6095 " fill="none" style="stroke: #A80036; stroke-width: 1.0;"/><polygon fill="none" points="117,129.11,124,109.11,131,129.11,117,129.11" style="stroke: #A80036; stroke-width: 1.0;"/><text fill="#000000" font-family="sans-serif" font-size="13" lengthAdjust="spacingAndGlyphs" textLength="21" x="125" y="153.5">is a</text></g></svg>