<?xml version="1.0" encoding="UTF-8" standalone="yes"?><svg xmlns="http://www.w3.org/2000/svg" xmlns:xlink="http://www.w3.org/1999/xlink" height="320pt" style="width:302px;height:320px;" version="1.1" viewBox="0 0 302 320" width="302pt"><defs><filter height="300%" id="f1" width="300%" x="-1" y="-1"><feGaussianBlur result="blurOut" stdDeviation="2.0"/><feColorMatrix in="blurOut" result="blurOut2" type="matrix" values="0 0 0 0 0 0 0 0 0 0 0 0 0 0 0 0 0 0 .4 0"/><feOffset dx="4.0" dy="4.0" in="blurOut2" result="blurOut3"/><feBlend in="SourceGraphic" in2="blurOut3" mode="normal"/></filter></defs><g><polygon fill="#FFFFFF" filter="url(#f1)" points="22,24,284,24,291,47.6094,295,47.6094,295,313,22,313,22,24" style="stroke: #000000; stroke-width: 2.0;"/><line style="stroke: #000000; stroke-width: 2.0;" x1="22" x2="291" y1="47.6094" y2="47.6094"/><text fill="#000000" font-family="sans-serif" font-size="14" font-weight="bold" lengthAdjust="spacingAndGlyphs" textLength="256" x="25" y="41">UML.Basics.Association.Aggregation</text><rect fill="#FEFECE" filter="url(#f1)" height="107.3438" style="stroke: #A80036; stroke-width: 1.5;" width="234" x="41" y="61.5"/><ellipse cx="120.75" cy="77.5" fill="#ADD1B2" rx="11" ry="11" style="stroke: #A80036; stroke-width: 1.0;"/><path d="M123.5156,73.375 Q123.6719,73.1563 123.8594,73.0469 Q124.0469,72.9375 124.2656,72.9375 Q124.6406,72.9375 124.875,73.1953 Q125.1094,73.4531 125.1094,74.0625 L125.1094,75.5156 Q125.1094,76.125 124.875,76.3906 Q124.6406,76.6563 124.2656,76.6563 Q123.9219,76.6563 123.7188,76.4531 Q123.5156,76.2656 123.4063,75.75 Q123.3594,75.3906 123.1719,75.2031 Q122.8438,74.8281 122.2344,74.6094 Q121.625,74.3906 121,74.3906 Q120.2344,74.3906 119.6016,74.7188 Q118.9688,75.0469 118.4766,75.7969 Q117.9844,76.5469 117.9844,77.5781 L117.9844,78.6719 Q117.9844,79.9063 118.875,80.7266 Q119.7656,81.5469 121.3594,81.5469 Q122.2969,81.5469 122.9531,81.2969 Q123.3438,81.1406 123.7656,80.7031 Q124.0313,80.4375 124.1797,80.3594 Q124.3281,80.2813 124.5313,80.2813 Q124.8594,80.2813 125.1172,80.5391 Q125.375,80.7969 125.375,81.1406 Q125.375,81.4844 125.0313,81.8906 Q124.5313,82.4688 123.7344,82.7969 Q122.6563,83.25 121.3594,83.25 Q119.8438,83.25 118.6406,82.625 Q117.6563,82.125 116.9688,81.0547 Q116.2813,79.9844 116.2813,78.7031 L116.2813,77.5469 Q116.2813,76.2188 116.8984,75.0703 Q117.5156,73.9219 118.6094,73.3047 Q119.7031,72.6875 120.9375,72.6875 Q121.6719,72.6875 122.3203,72.8516 Q122.9688,73.0156 123.5156,73.375 Z "/><text fill="#000000" font-family="sans-serif" font-size="12" lengthAdjust="spacingAndGlyphs" textLength="66" x="141.25" y="81.9531">Swift_Mailer</text><line style="stroke: #A80036; stroke-width: 1.5;" x1="42" x2="274" y1="93.5" y2="93.5"/><rect fill="none" height="6" style="stroke: #C82930; stroke-width: 1.0;" width="6" x="49" y="102.918"/><text fill="#000000" font-family="sans-serif" font-size="11" lengthAdjust="spacingAndGlyphs" textLength="132" x="61" y="108.5">transport : Swift_Transport</text><line style="stroke: #A80036; stroke-width: 1.5;" x1="42" x2="274" y1="115.3359" y2="115.3359"/><ellipse cx="52" cy="127.7539" fill="#84BE84" rx="3" ry="3" style="stroke: #038048; stroke-width: 1.0;"/><text fill="#000000" font-family="sans-serif" font-size="11" lengthAdjust="spacingAndGlyphs" textLength="208" x="61" y="130.3359">__constructor(transport : Swift_Transport)</text><ellipse cx="52" cy="159.4258" fill="#84BE84" rx="3" ry="3" style="stroke: #038048; stroke-width: 1.0;"/><text fill="#000000" font-family="sans-serif" font-size="11" lengthAdjust="spacingAndGlyphs" text-decoration="underline" textLength="203" x="61" y="162.0078">newInstance(transport : Swift_Transport)</text><line style="stroke: #A80036; stroke-width: 1.0; stroke-dasharray: 1.0,2.0;" x1="42" x2="150.5" y1="144.0898" y2="144.0898"/><text fill="#000000" font-family="sans-serif" font-size="11" lengthAdjust="spacingAndGlyphs" textLength="15" x="150.5" y="147.6719">OR</text><line style="stroke: #A80036; stroke-width: 1.0; stroke-dasharray: 1.0,2.0;" x1="165.5" x2="274" y1="144.0898" y2="144.0898"/><rect fill="#FEFECE" filter="url(#f1)" height="48" style="stroke: #A80036; stroke-width: 1.5;" width="118" x="99" y="249"/><ellipse cx="114" cy="265" fill="#ADD1B2" rx="11" ry="11" style="stroke: #A80036; stroke-width: 1.0;"/><path d="M116.7656,260.875 Q116.9219,260.6563 117.1094,260.5469 Q117.2969,260.4375 117.5156,260.4375 Q117.8906,260.4375 118.125,260.6953 Q118.3594,260.9531 118.3594,261.5625 L118.3594,263.0156 Q118.3594,263.625 118.125,263.8906 Q117.8906,264.1563 117.5156,264.1563 Q117.1719,264.1563 116.9688,263.9531 Q116.7656,263.7656 116.6563,263.25 Q116.6094,262.8906 116.4219,262.7031 Q116.0938,262.3281 115.4844,262.1094 Q114.875,261.8906 114.25,261.8906 Q113.4844,261.8906 112.8516,262.2188 Q112.2188,262.5469 111.7266,263.2969 Q111.2344,264.0469 111.2344,265.0781 L111.2344,266.1719 Q111.2344,267.4063 112.125,268.2266 Q113.0156,269.0469 114.6094,269.0469 Q115.5469,269.0469 116.2031,268.7969 Q116.5938,268.6406 117.0156,268.2031 Q117.2813,267.9375 117.4297,267.8594 Q117.5781,267.7813 117.7813,267.7813 Q118.1094,267.7813 118.3672,268.0391 Q118.625,268.2969 118.625,268.6406 Q118.625,268.9844 118.2813,269.3906 Q117.7813,269.9688 116.9844,270.2969 Q115.9063,270.75 114.6094,270.75 Q113.0938,270.75 111.8906,270.125 Q110.9063,269.625 110.2188,268.5547 Q109.5313,267.4844 109.5313,266.2031 L109.5313,265.0469 Q109.5313,263.7188 110.1484,262.5703 Q110.7656,261.4219 111.8594,260.8047 Q112.9531,260.1875 114.1875,260.1875 Q114.9219,260.1875 115.5703,260.3516 Q116.2188,260.5156 116.7656,260.875 Z "/><text fill="#000000" font-family="sans-serif" font-size="12" lengthAdjust="spacingAndGlyphs" textLength="86" x="128" y="269.4531">Swift_Transport</text><line style="stroke: #A80036; stroke-width: 1.5;" x1="100" x2="216" y1="281" y2="281"/><line style="stroke: #A80036; stroke-width: 1.5;" x1="100" x2="216" y1="289" y2="289"/><path d="M158,181.853 C158,205.717 158,231.1352 158,248.8767 " fill="none" style="stroke: #A80036; stroke-width: 1.0; stroke-dasharray: 7.0,7.0;"/><polygon fill="none" points="158,168.814,154,174.814,158,180.814,162,174.814,158,168.814" style="stroke: #A80036; stroke-width: 1.0;"/><text fill="#000000" font-family="sans-serif" font-size="13" lengthAdjust="spacingAndGlyphs" textLength="21" x="159" y="213.5">has</text></g></svg>