<?xml version="1.0" encoding="UTF-8" standalone="yes"?><svg xmlns="http://www.w3.org/2000/svg" xmlns:xlink="http://www.w3.org/1999/xlink" height="320pt" style="width:304px;height:320px;" version="1.1" viewBox="0 0 304 320" width="304pt"><defs><filter height="300%" id="f1" width="300%" x="-1" y="-1"><feGaussianBlur result="blurOut" stdDeviation="2.0"/><feColorMatrix in="blurOut" result="blurOut2" type="matrix" values="0 0 0 0 0 0 0 0 0 0 0 0 0 0 0 0 0 0 .4 0"/><feOffset dx="4.0" dy="4.0" in="blurOut2" result="blurOut3"/><feBlend in="SourceGraphic" in2="blurOut3" mode="normal"/></filter></defs><g><polygon fill="#FFFFFF" filter="url(#f1)" points="22,24,286,24,293,47.6094,297,47.6094,297,313,22,313,22,24" style="stroke: #000000; stroke-width: 2.0;"/><line style="stroke: #000000; stroke-width: 2.0;" x1="22" x2="293" y1="47.6094" y2="47.6094"/><text fill="#000000" font-family="sans-serif" font-size="14" font-weight="bold" lengthAdjust="spacingAndGlyphs" textLength="258" x="25" y="41">UML.Basics.Association.Composition</text><rect fill="#FEFECE" filter="url(#f1)" height="107.3438" style="stroke: #A80036; stroke-width: 1.5;" width="96" x="111" y="61.5"/><ellipse cx="143.55" cy="77.5" fill="#ADD1B2" rx="11" ry="11" style="stroke: #A80036; stroke-width: 1.0;"/><path d="M146.3156,73.375 Q146.4719,73.1563 146.6594,73.0469 Q146.8469,72.9375 147.0656,72.9375 Q147.4406,72.9375 147.675,73.1953 Q147.9094,73.4531 147.9094,74.0625 L147.9094,75.5156 Q147.9094,76.125 147.675,76.3906 Q147.4406,76.6563 147.0656,76.6563 Q146.7219,76.6563 146.5188,76.4531 Q146.3156,76.2656 146.2063,75.75 Q146.1594,75.3906 145.9719,75.2031 Q145.6438,74.8281 145.0344,74.6094 Q144.425,74.3906 143.8,74.3906 Q143.0344,74.3906 142.4016,74.7188 Q141.7688,75.0469 141.2766,75.7969 Q140.7844,76.5469 140.7844,77.5781 L140.7844,78.6719 Q140.7844,79.9063 141.675,80.7266 Q142.5656,81.5469 144.1594,81.5469 Q145.0969,81.5469 145.7531,81.2969 Q146.1438,81.1406 146.5656,80.7031 Q146.8313,80.4375 146.9797,80.3594 Q147.1281,80.2813 147.3313,80.2813 Q147.6594,80.2813 147.9172,80.5391 Q148.175,80.7969 148.175,81.1406 Q148.175,81.4844 147.8313,81.8906 Q147.3313,82.4688 146.5344,82.7969 Q145.4563,83.25 144.1594,83.25 Q142.6438,83.25 141.4406,82.625 Q140.4563,82.125 139.7688,81.0547 Q139.0813,79.9844 139.0813,78.7031 L139.0813,77.5469 Q139.0813,76.2188 139.6984,75.0703 Q140.3156,73.9219 141.4094,73.3047 Q142.5031,72.6875 143.7375,72.6875 Q144.4719,72.6875 145.1203,72.8516 Q145.7688,73.0156 146.3156,73.375 Z "/><text fill="#000000" font-family="sans-serif" font-size="12" lengthAdjust="spacingAndGlyphs" textLength="25" x="161.45" y="81.9531">Slim</text><line style="stroke: #A80036; stroke-width: 1.5;" x1="112" x2="206" y1="93.5" y2="93.5"/><rect fill="none" height="6" style="stroke: #C82930; stroke-width: 1.0;" width="6" x="119" y="102.918"/><text fill="#000000" font-family="sans-serif" font-size="11" lengthAdjust="spacingAndGlyphs" textLength="70" x="131" y="108.5">container : Set</text><line style="stroke: #A80036; stroke-width: 1.5;" x1="112" x2="206" y1="115.3359" y2="115.3359"/><ellipse cx="122" cy="127.7539" fill="#84BE84" rx="3" ry="3" style="stroke: #038048; stroke-width: 1.0;"/><text fill="#000000" font-family="sans-serif" font-size="11" lengthAdjust="spacingAndGlyphs" textLength="66" x="131" y="130.3359">__construct()</text><ellipse cx="122" cy="159.4258" fill="#84BE84" rx="3" ry="3" style="stroke: #038048; stroke-width: 1.0;"/><text fill="#000000" font-family="sans-serif" font-size="11" lengthAdjust="spacingAndGlyphs" textLength="69" x="131" y="162.0078">getContainer()</text><line style="stroke: #A80036; stroke-width: 1.0; stroke-dasharray: 1.0,2.0;" x1="112" x2="151.5" y1="144.0898" y2="144.0898"/><text fill="#000000" font-family="sans-serif" font-size="11" lengthAdjust="spacingAndGlyphs" textLength="15" x="151.5" y="147.6719">OR</text><line style="stroke: #A80036; stroke-width: 1.0; stroke-dasharray: 1.0,2.0;" x1="166.5" x2="206" y1="144.0898" y2="144.0898"/><rect fill="#FEFECE" filter="url(#f1)" height="48" style="stroke: #A80036; stroke-width: 1.5;" width="50" x="134" y="249"/><ellipse cx="149" cy="265" fill="#ADD1B2" rx="11" ry="11" style="stroke: #A80036; stroke-width: 1.0;"/><path d="M151.7656,260.875 Q151.9219,260.6563 152.1094,260.5469 Q152.2969,260.4375 152.5156,260.4375 Q152.8906,260.4375 153.125,260.6953 Q153.3594,260.9531 153.3594,261.5625 L153.3594,263.0156 Q153.3594,263.625 153.125,263.8906 Q152.8906,264.1563 152.5156,264.1563 Q152.1719,264.1563 151.9688,263.9531 Q151.7656,263.7656 151.6563,263.25 Q151.6094,262.8906 151.4219,262.7031 Q151.0938,262.3281 150.4844,262.1094 Q149.875,261.8906 149.25,261.8906 Q148.4844,261.8906 147.8516,262.2188 Q147.2188,262.5469 146.7266,263.2969 Q146.2344,264.0469 146.2344,265.0781 L146.2344,266.1719 Q146.2344,267.4063 147.125,268.2266 Q148.0156,269.0469 149.6094,269.0469 Q150.5469,269.0469 151.2031,268.7969 Q151.5938,268.6406 152.0156,268.2031 Q152.2813,267.9375 152.4297,267.8594 Q152.5781,267.7813 152.7813,267.7813 Q153.1094,267.7813 153.3672,268.0391 Q153.625,268.2969 153.625,268.6406 Q153.625,268.9844 153.2813,269.3906 Q152.7813,269.9688 151.9844,270.2969 Q150.9063,270.75 149.6094,270.75 Q148.0938,270.75 146.8906,270.125 Q145.9063,269.625 145.2188,268.5547 Q144.5313,267.4844 144.5313,266.2031 L144.5313,265.0469 Q144.5313,263.7188 145.1484,262.5703 Q145.7656,261.4219 146.8594,260.8047 Q147.9531,260.1875 149.1875,260.1875 Q149.9219,260.1875 150.5703,260.3516 Q151.2188,260.5156 151.7656,260.875 Z "/><text fill="#000000" font-family="sans-serif" font-size="12" lengthAdjust="spacingAndGlyphs" textLength="18" x="163" y="269.4531">Set</text><line style="stroke: #A80036; stroke-width: 1.5;" x1="135" x2="183" y1="281" y2="281"/><line style="stroke: #A80036; stroke-width: 1.5;" x1="135" x2="183" y1="289" y2="289"/><path d="M159,181.853 C159,205.717 159,231.1352 159,248.8767 " fill="none" style="stroke: #A80036; stroke-width: 1.0; stroke-dasharray: 7.0,7.0;"/><polygon fill="#A80036" points="159,168.814,155,174.814,159,180.814,163,174.814,159,168.814" style="stroke: #A80036; stroke-width: 1.0;"/><text fill="#000000" font-family="sans-serif" font-size="13" lengthAdjust="spacingAndGlyphs" textLength="30" x="160" y="213.5">owns</text></g></svg>