<?xml version="1.0" encoding="UTF-8" standalone="yes"?><svg xmlns="http://www.w3.org/2000/svg" xmlns:xlink="http://www.w3.org/1999/xlink" height="274pt" style="width:239px;height:274px;" version="1.1" viewBox="0 0 239 274" width="239pt"><defs><filter height="300%" id="f1" width="300%" x="-1" y="-1"><feGaussianBlur result="blurOut" stdDeviation="2.0"/><feColorMatrix in="blurOut" result="blurOut2" type="matrix" values="0 0 0 0 0 0 0 0 0 0 0 0 0 0 0 0 0 0 .4 0"/><feOffset dx="4.0" dy="4.0" in="blurOut2" result="blurOut3"/><feBlend in="SourceGraphic" in2="blurOut3" mode="normal"/></filter></defs><g><polygon fill="#FFFFFF" filter="url(#f1)" points="22,24,201,24,208,47.6094,232,47.6094,232,267,22,267,22,24" style="stroke: #000000; stroke-width: 2.0;"/><line style="stroke: #000000; stroke-width: 2.0;" x1="22" x2="208" y1="47.6094" y2="47.6094"/><text fill="#000000" font-family="sans-serif" font-size="14" font-weight="bold" lengthAdjust="spacingAndGlyphs" textLength="173" x="25" y="41">UML.Basics.Dependency</text><rect fill="#FEFECE" filter="url(#f1)" height="61.8359" style="stroke: #A80036; stroke-width: 1.5;" width="177" x="38.75" y="61"/><ellipse cx="79.4" cy="77" fill="#ADD1B2" rx="11" ry="11" style="stroke: #A80036; stroke-width: 1.0;"/><path d="M82.1656,72.875 Q82.3219,72.6563 82.5094,72.5469 Q82.6969,72.4375 82.9156,72.4375 Q83.2906,72.4375 83.525,72.6953 Q83.7594,72.9531 83.7594,73.5625 L83.7594,75.0156 Q83.7594,75.625 83.525,75.8906 Q83.2906,76.1563 82.9156,76.1563 Q82.5719,76.1563 82.3688,75.9531 Q82.1656,75.7656 82.0563,75.25 Q82.0094,74.8906 81.8219,74.7031 Q81.4938,74.3281 80.8844,74.1094 Q80.275,73.8906 79.65,73.8906 Q78.8844,73.8906 78.2516,74.2188 Q77.6188,74.5469 77.1266,75.2969 Q76.6344,76.0469 76.6344,77.0781 L76.6344,78.1719 Q76.6344,79.4063 77.525,80.2266 Q78.4156,81.0469 80.0094,81.0469 Q80.9469,81.0469 81.6031,80.7969 Q81.9938,80.6406 82.4156,80.2031 Q82.6813,79.9375 82.8297,79.8594 Q82.9781,79.7813 83.1813,79.7813 Q83.5094,79.7813 83.7672,80.0391 Q84.025,80.2969 84.025,80.6406 Q84.025,80.9844 83.6813,81.3906 Q83.1813,81.9688 82.3844,82.2969 Q81.3063,82.75 80.0094,82.75 Q78.4938,82.75 77.2906,82.125 Q76.3063,81.625 75.6188,80.5547 Q74.9313,79.4844 74.9313,78.2031 L74.9313,77.0469 Q74.9313,75.7188 75.5484,74.5703 Q76.1656,73.4219 77.2594,72.8047 Q78.3531,72.1875 79.5875,72.1875 Q80.3219,72.1875 80.9703,72.3516 Q81.6188,72.5156 82.1656,72.875 Z "/><text fill="#000000" font-family="sans-serif" font-size="12" lengthAdjust="spacingAndGlyphs" textLength="88" x="99.1" y="81.4531">HomeController</text><line style="stroke: #A80036; stroke-width: 1.5;" x1="39.75" x2="214.75" y1="93" y2="93"/><line style="stroke: #A80036; stroke-width: 1.5;" x1="39.75" x2="214.75" y1="101" y2="101"/><ellipse cx="49.75" cy="113.418" fill="#84BE84" rx="3" ry="3" style="stroke: #038048; stroke-width: 1.0;"/><text fill="#000000" font-family="sans-serif" font-size="11" lengthAdjust="spacingAndGlyphs" textLength="151" x="58.75" y="116">indexAction(request : Request)</text><rect fill="#FEFECE" filter="url(#f1)" height="48" style="stroke: #A80036; stroke-width: 1.5;" width="79" x="87.75" y="203"/><ellipse cx="102.75" cy="219" fill="#ADD1B2" rx="11" ry="11" style="stroke: #A80036; stroke-width: 1.0;"/><path d="M105.5156,214.875 Q105.6719,214.6563 105.8594,214.5469 Q106.0469,214.4375 106.2656,214.4375 Q106.6406,214.4375 106.875,214.6953 Q107.1094,214.9531 107.1094,215.5625 L107.1094,217.0156 Q107.1094,217.625 106.875,217.8906 Q106.6406,218.1563 106.2656,218.1563 Q105.9219,218.1563 105.7188,217.9531 Q105.5156,217.7656 105.4063,217.25 Q105.3594,216.8906 105.1719,216.7031 Q104.8438,216.3281 104.2344,216.1094 Q103.625,215.8906 103,215.8906 Q102.2344,215.8906 101.6016,216.2188 Q100.9688,216.5469 100.4766,217.2969 Q99.9844,218.0469 99.9844,219.0781 L99.9844,220.1719 Q99.9844,221.4063 100.875,222.2266 Q101.7656,223.0469 103.3594,223.0469 Q104.2969,223.0469 104.9531,222.7969 Q105.3438,222.6406 105.7656,222.2031 Q106.0313,221.9375 106.1797,221.8594 Q106.3281,221.7813 106.5313,221.7813 Q106.8594,221.7813 107.1172,222.0391 Q107.375,222.2969 107.375,222.6406 Q107.375,222.9844 107.0313,223.3906 Q106.5313,223.9688 105.7344,224.2969 Q104.6563,224.75 103.3594,224.75 Q101.8438,224.75 100.6406,224.125 Q99.6563,223.625 98.9688,222.5547 Q98.2813,221.4844 98.2813,220.2031 L98.2813,219.0469 Q98.2813,217.7188 98.8984,216.5703 Q99.5156,215.4219 100.6094,214.8047 Q101.7031,214.1875 102.9375,214.1875 Q103.6719,214.1875 104.3203,214.3516 Q104.9688,214.5156 105.5156,214.875 Z "/><text fill="#000000" font-family="sans-serif" font-size="12" lengthAdjust="spacingAndGlyphs" textLength="47" x="116.75" y="223.4531">Request</text><line style="stroke: #A80036; stroke-width: 1.5;" x1="88.75" x2="165.75" y1="235" y2="235"/><line style="stroke: #A80036; stroke-width: 1.5;" x1="88.75" x2="165.75" y1="243" y2="243"/><path d="M127,123.18 C127,145.601 127,175.968 127,197.8815 " fill="none" style="stroke: #A80036; stroke-width: 1.0; stroke-dasharray: 7.0,7.0;"/><polygon fill="#A80036" points="127,202.9803,131,193.9803,127,197.9803,123,193.9803,127,202.9803" style="stroke: #A80036; stroke-width: 1.0;"/><text fill="#000000" font-family="sans-serif" font-size="13" lengthAdjust="spacingAndGlyphs" textLength="28" x="128" y="167.5">uses</text></g></svg>