<?xml version="1.0" encoding="UTF-8" standalone="yes"?><svg xmlns="http://www.w3.org/2000/svg" xmlns:xlink="http://www.w3.org/1999/xlink" height="260pt" style="width:208px;height:260px;" version="1.1" viewBox="0 0 208 260" width="208pt"><defs><filter height="300%" id="f1" width="300%" x="-1" y="-1"><feGaussianBlur result="blurOut" stdDeviation="2.0"/><feColorMatrix in="blurOut" result="blurOut2" type="matrix" values="0 0 0 0 0 0 0 0 0 0 0 0 0 0 0 0 0 0 .4 0"/><feOffset dx="4.0" dy="4.0" in="blurOut2" result="blurOut3"/><feBlend in="SourceGraphic" in2="blurOut3" mode="normal"/></filter></defs><g><polygon fill="#FFFFFF" filter="url(#f1)" points="22,24,190,24,197,47.6094,201,47.6094,201,253,22,253,22,24" style="stroke: #000000; stroke-width: 2.0;"/><line style="stroke: #000000; stroke-width: 2.0;" x1="22" x2="197" y1="47.6094" y2="47.6094"/><text fill="#000000" font-family="sans-serif" font-size="14" font-weight="bold" lengthAdjust="spacingAndGlyphs" textLength="162" x="25" y="41">UML.Basics.Realization</text><rect fill="#FEFECE" filter="url(#f1)" height="48" style="stroke: #A80036; stroke-width: 1.5;" width="119" x="51.75" y="61"/><ellipse cx="66.75" cy="77" fill="#B4A7E5" rx="11" ry="11" style="stroke: #A80036; stroke-width: 1.0;"/><path d="M67.7031,73.6406 L67.7031,80.2969 L69.4219,80.2969 Q70.0313,80.2969 70.2969,80.5313 Q70.5625,80.7656 70.5625,81.1563 Q70.5625,81.5313 70.2969,81.7656 Q70.0313,82 69.4219,82 L64.2813,82 Q63.6719,82 63.4063,81.7656 Q63.1406,81.5313 63.1406,81.1406 Q63.1406,80.7656 63.4063,80.5313 Q63.6719,80.2969 64.2813,80.2969 L66,80.2969 L66,73.6406 L64.2813,73.6406 Q63.6719,73.6406 63.4063,73.4063 Q63.1406,73.1719 63.1406,72.7813 Q63.1406,72.4063 63.4063,72.1719 Q63.6719,71.9375 64.2813,71.9375 L69.4219,71.9375 Q70.0313,71.9375 70.2969,72.1719 Q70.5625,72.4063 70.5625,72.7813 Q70.5625,73.1719 70.2969,73.4063 Q70.0313,73.6406 69.4219,73.6406 L67.7031,73.6406 Z "/><text fill="#000000" font-family="sans-serif" font-size="12" font-style="italic" lengthAdjust="spacingAndGlyphs" textLength="87" x="80.75" y="81.4531">LoggerInterface</text><line style="stroke: #A80036; stroke-width: 1.5;" x1="52.75" x2="169.75" y1="93" y2="93"/><line style="stroke: #A80036; stroke-width: 1.5;" x1="52.75" x2="169.75" y1="101" y2="101"/><rect fill="#FEFECE" filter="url(#f1)" height="48" style="stroke: #A80036; stroke-width: 1.5;" width="118" x="52" y="189"/><ellipse cx="67" cy="205" fill="#ADD1B2" rx="11" ry="11" style="stroke: #A80036; stroke-width: 1.0;"/><path d="M69.7656,200.875 Q69.9219,200.6563 70.1094,200.5469 Q70.2969,200.4375 70.5156,200.4375 Q70.8906,200.4375 71.125,200.6953 Q71.3594,200.9531 71.3594,201.5625 L71.3594,203.0156 Q71.3594,203.625 71.125,203.8906 Q70.8906,204.1563 70.5156,204.1563 Q70.1719,204.1563 69.9688,203.9531 Q69.7656,203.7656 69.6563,203.25 Q69.6094,202.8906 69.4219,202.7031 Q69.0938,202.3281 68.4844,202.1094 Q67.875,201.8906 67.25,201.8906 Q66.4844,201.8906 65.8516,202.2188 Q65.2188,202.5469 64.7266,203.2969 Q64.2344,204.0469 64.2344,205.0781 L64.2344,206.1719 Q64.2344,207.4063 65.125,208.2266 Q66.0156,209.0469 67.6094,209.0469 Q68.5469,209.0469 69.2031,208.7969 Q69.5938,208.6406 70.0156,208.2031 Q70.2813,207.9375 70.4297,207.8594 Q70.5781,207.7813 70.7813,207.7813 Q71.1094,207.7813 71.3672,208.0391 Q71.625,208.2969 71.625,208.6406 Q71.625,208.9844 71.2813,209.3906 Q70.7813,209.9688 69.9844,210.2969 Q68.9063,210.75 67.6094,210.75 Q66.0938,210.75 64.8906,210.125 Q63.9063,209.625 63.2188,208.5547 Q62.5313,207.4844 62.5313,206.2031 L62.5313,205.0469 Q62.5313,203.7188 63.1484,202.5703 Q63.7656,201.4219 64.8594,200.8047 Q65.9531,200.1875 67.1875,200.1875 Q67.9219,200.1875 68.5703,200.3516 Q69.2188,200.5156 69.7656,200.875 Z "/><text fill="#000000" font-family="sans-serif" font-size="12" lengthAdjust="spacingAndGlyphs" textLength="86" x="81" y="209.4531">ConsoleLogger</text><line style="stroke: #A80036; stroke-width: 1.5;" x1="53" x2="169" y1="221" y2="221"/><line style="stroke: #A80036; stroke-width: 1.5;" x1="53" x2="169" y1="229" y2="229"/><path d="M111,129.141 C111,149.068 111,171.948 111,188.6095 " fill="none" style="stroke: #A80036; stroke-width: 1.0; stroke-dasharray: 7.0,7.0;"/><polygon fill="none" points="104.0001,129.11,111,109.11,118,129.11,104.0001,129.11" style="stroke: #A80036; stroke-width: 1.0;"/><text fill="#000000" font-family="sans-serif" font-size="13" lengthAdjust="spacingAndGlyphs" textLength="45" x="112" y="153.5">realizes</text></g></svg>