<?xml version="1.0" encoding="UTF-8" standalone="yes"?><svg xmlns="http://www.w3.org/2000/svg" xmlns:xlink="http://www.w3.org/1999/xlink" height="146pt" style="width:331px;height:146px;" version="1.1" viewBox="0 0 331 146" width="331pt"><defs><filter height="300%" id="f1" width="300%" x="-1" y="-1"><feGaussianBlur result="blurOut" stdDeviation="2.0"/><feColorMatrix in="blurOut" result="blurOut2" type="matrix" values="0 0 0 0 0 0 0 0 0 0 0 0 0 0 0 0 0 0 .4 0"/><feOffset dx="4.0" dy="4.0" in="blurOut2" result="blurOut3"/><feBlend in="SourceGraphic" in2="blurOut3" mode="normal"/></filter></defs><g><polygon fill="#FFFFFF" filter="url(#f1)" points="22,24,287,24,294,47.6094,324,47.6094,324,139,22,139,22,24" style="stroke: #000000; stroke-width: 2.0;"/><line style="stroke: #000000; stroke-width: 2.0;" x1="22" x2="294" y1="47.6094" y2="47.6094"/><text fill="#000000" font-family="sans-serif" font-size="14" font-weight="bold" lengthAdjust="spacingAndGlyphs" textLength="259" x="25" y="41">UML.Basics.Association.Bidirectional</text><rect fill="#FEFECE" filter="url(#f1)" height="61.8359" style="stroke: #A80036; stroke-width: 1.5;" width="100" x="38" y="61"/><ellipse cx="65.6" cy="77" fill="#ADD1B2" rx="11" ry="11" style="stroke: #A80036; stroke-width: 1.0;"/><path d="M68.3656,72.875 Q68.5219,72.6563 68.7094,72.5469 Q68.8969,72.4375 69.1156,72.4375 Q69.4906,72.4375 69.725,72.6953 Q69.9594,72.9531 69.9594,73.5625 L69.9594,75.0156 Q69.9594,75.625 69.725,75.8906 Q69.4906,76.1563 69.1156,76.1563 Q68.7719,76.1563 68.5688,75.9531 Q68.3656,75.7656 68.2563,75.25 Q68.2094,74.8906 68.0219,74.7031 Q67.6938,74.3281 67.0844,74.1094 Q66.475,73.8906 65.85,73.8906 Q65.0844,73.8906 64.4516,74.2188 Q63.8187,74.5469 63.3266,75.2969 Q62.8344,76.0469 62.8344,77.0781 L62.8344,78.1719 Q62.8344,79.4063 63.725,80.2266 Q64.6156,81.0469 66.2094,81.0469 Q67.1469,81.0469 67.8031,80.7969 Q68.1938,80.6406 68.6156,80.2031 Q68.8813,79.9375 69.0297,79.8594 Q69.1781,79.7813 69.3813,79.7813 Q69.7094,79.7813 69.9672,80.0391 Q70.225,80.2969 70.225,80.6406 Q70.225,80.9844 69.8813,81.3906 Q69.3813,81.9688 68.5844,82.2969 Q67.5063,82.75 66.2094,82.75 Q64.6938,82.75 63.4906,82.125 Q62.5062,81.625 61.8187,80.5547 Q61.1312,79.4844 61.1312,78.2031 L61.1312,77.0469 Q61.1312,75.7188 61.7484,74.5703 Q62.3656,73.4219 63.4594,72.8047 Q64.5531,72.1875 65.7875,72.1875 Q66.5219,72.1875 67.1703,72.3516 Q67.8188,72.5156 68.3656,72.875 Z "/><text fill="#000000" font-family="sans-serif" font-size="12" lengthAdjust="spacingAndGlyphs" textLength="40" x="82.4" y="81.4531">Person</text><line style="stroke: #A80036; stroke-width: 1.5;" x1="39" x2="137" y1="93" y2="93"/><rect fill="none" height="6" style="stroke: #C82930; stroke-width: 1.0;" width="6" x="46" y="102.418"/><text fill="#000000" font-family="sans-serif" font-size="11" lengthAdjust="spacingAndGlyphs" textLength="74" x="58" y="108">books : Books[]</text><line style="stroke: #A80036; stroke-width: 1.5;" x1="39" x2="137" y1="114.8359" y2="114.8359"/><rect fill="#FEFECE" filter="url(#f1)" height="61.8359" style="stroke: #A80036; stroke-width: 1.5;" width="100" x="208" y="61"/><ellipse cx="241" cy="77" fill="#ADD1B2" rx="11" ry="11" style="stroke: #A80036; stroke-width: 1.0;"/><path d="M243.7656,72.875 Q243.9219,72.6563 244.1094,72.5469 Q244.2969,72.4375 244.5156,72.4375 Q244.8906,72.4375 245.125,72.6953 Q245.3594,72.9531 245.3594,73.5625 L245.3594,75.0156 Q245.3594,75.625 245.125,75.8906 Q244.8906,76.1563 244.5156,76.1563 Q244.1719,76.1563 243.9688,75.9531 Q243.7656,75.7656 243.6563,75.25 Q243.6094,74.8906 243.4219,74.7031 Q243.0938,74.3281 242.4844,74.1094 Q241.875,73.8906 241.25,73.8906 Q240.4844,73.8906 239.8516,74.2188 Q239.2188,74.5469 238.7266,75.2969 Q238.2344,76.0469 238.2344,77.0781 L238.2344,78.1719 Q238.2344,79.4063 239.125,80.2266 Q240.0156,81.0469 241.6094,81.0469 Q242.5469,81.0469 243.2031,80.7969 Q243.5938,80.6406 244.0156,80.2031 Q244.2813,79.9375 244.4297,79.8594 Q244.5781,79.7813 244.7813,79.7813 Q245.1094,79.7813 245.3672,80.0391 Q245.625,80.2969 245.625,80.6406 Q245.625,80.9844 245.2813,81.3906 Q244.7813,81.9688 243.9844,82.2969 Q242.9063,82.75 241.6094,82.75 Q240.0938,82.75 238.8906,82.125 Q237.9063,81.625 237.2188,80.5547 Q236.5313,79.4844 236.5313,78.2031 L236.5313,77.0469 Q236.5313,75.7188 237.1484,74.5703 Q237.7656,73.4219 238.8594,72.8047 Q239.9531,72.1875 241.1875,72.1875 Q241.9219,72.1875 242.5703,72.3516 Q243.2188,72.5156 243.7656,72.875 Z "/><text fill="#000000" font-family="sans-serif" font-size="12" lengthAdjust="spacingAndGlyphs" textLength="28" x="259" y="81.4531">Book</text><line style="stroke: #A80036; stroke-width: 1.5;" x1="209" x2="307" y1="93" y2="93"/><rect fill="none" height="6" style="stroke: #C82930; stroke-width: 1.0;" width="6" x="216" y="102.418"/><text fill="#000000" font-family="sans-serif" font-size="11" lengthAdjust="spacingAndGlyphs" textLength="74" x="228" y="108">person: Person</text><line style="stroke: #A80036; stroke-width: 1.5;" x1="209" x2="307" y1="114.8359" y2="114.8359"/><path d="M138.086,92 C160.123,92 185.949,92 207.978,92 " fill="none" style="stroke: #A80036; stroke-width: 1.0;"/><text fill="#000000" font-family="sans-serif" font-size="13" lengthAdjust="spacingAndGlyphs" textLength="21" x="162" y="84">has</text></g></svg>