<?xml version="1.0" encoding="UTF-8" standalone="yes"?><svg xmlns="http://www.w3.org/2000/svg" xmlns:xlink="http://www.w3.org/1999/xlink" height="146pt" style="width:314px;height:146px;" version="1.1" viewBox="0 0 314 146" width="314pt"><defs><filter height="300%" id="f1" width="300%" x="-1" y="-1"><feGaussianBlur result="blurOut" stdDeviation="2.0"/><feColorMatrix in="blurOut" result="blurOut2" type="matrix" values="0 0 0 0 0 0 0 0 0 0 0 0 0 0 0 0 0 0 .4 0"/><feOffset dx="4.0" dy="4.0" in="blurOut2" result="blurOut3"/><feBlend in="SourceGraphic" in2="blurOut3" mode="normal"/></filter></defs><g><polygon fill="#FFFFFF" filter="url(#f1)" points="22,24,296,24,303,47.6094,307,47.6094,307,139,22,139,22,24" style="stroke: #000000; stroke-width: 2.0;"/><line style="stroke: #000000; stroke-width: 2.0;" x1="22" x2="303" y1="47.6094" y2="47.6094"/><text fill="#000000" font-family="sans-serif" font-size="14" font-weight="bold" lengthAdjust="spacingAndGlyphs" textLength="268" x="25" y="41">UML.Basics.Association.Unidirectional</text><rect fill="#FEFECE" filter="url(#f1)" height="61.8359" style="stroke: #A80036; stroke-width: 1.5;" width="99" x="44.75" y="61"/><ellipse cx="80.9" cy="77" fill="#ADD1B2" rx="11" ry="11" style="stroke: #A80036; stroke-width: 1.0;"/><path d="M83.6656,72.875 Q83.8219,72.6563 84.0094,72.5469 Q84.1969,72.4375 84.4156,72.4375 Q84.7906,72.4375 85.025,72.6953 Q85.2594,72.9531 85.2594,73.5625 L85.2594,75.0156 Q85.2594,75.625 85.025,75.8906 Q84.7906,76.1563 84.4156,76.1563 Q84.0719,76.1563 83.8688,75.9531 Q83.6656,75.7656 83.5563,75.25 Q83.5094,74.8906 83.3219,74.7031 Q82.9938,74.3281 82.3844,74.1094 Q81.775,73.8906 81.15,73.8906 Q80.3844,73.8906 79.7516,74.2188 Q79.1188,74.5469 78.6266,75.2969 Q78.1344,76.0469 78.1344,77.0781 L78.1344,78.1719 Q78.1344,79.4063 79.025,80.2266 Q79.9156,81.0469 81.5094,81.0469 Q82.4469,81.0469 83.1031,80.7969 Q83.4938,80.6406 83.9156,80.2031 Q84.1813,79.9375 84.3297,79.8594 Q84.4781,79.7813 84.6813,79.7813 Q85.0094,79.7813 85.2672,80.0391 Q85.525,80.2969 85.525,80.6406 Q85.525,80.9844 85.1813,81.3906 Q84.6813,81.9688 83.8844,82.2969 Q82.8063,82.75 81.5094,82.75 Q79.9938,82.75 78.7906,82.125 Q77.8063,81.625 77.1188,80.5547 Q76.4313,79.4844 76.4313,78.2031 L76.4313,77.0469 Q76.4313,75.7188 77.0484,74.5703 Q77.6656,73.4219 78.7594,72.8047 Q79.8531,72.1875 81.0875,72.1875 Q81.8219,72.1875 82.4703,72.3516 Q83.1188,72.5156 83.6656,72.875 Z "/><text fill="#000000" font-family="sans-serif" font-size="12" lengthAdjust="spacingAndGlyphs" textLength="20" x="99.6" y="81.4531">Car</text><line style="stroke: #A80036; stroke-width: 1.5;" x1="45.75" x2="142.75" y1="93" y2="93"/><rect fill="none" height="6" style="stroke: #C82930; stroke-width: 1.0;" width="6" x="52.75" y="102.418"/><text fill="#000000" font-family="sans-serif" font-size="11" lengthAdjust="spacingAndGlyphs" textLength="73" x="64.75" y="108">engine : Engine</text><line style="stroke: #A80036; stroke-width: 1.5;" x1="45.75" x2="142.75" y1="114.8359" y2="114.8359"/><rect fill="#FEFECE" filter="url(#f1)" height="48" style="stroke: #A80036; stroke-width: 1.5;" width="71" x="213.75" y="68"/><ellipse cx="228.75" cy="84" fill="#ADD1B2" rx="11" ry="11" style="stroke: #A80036; stroke-width: 1.0;"/><path d="M231.5156,79.875 Q231.6719,79.6563 231.8594,79.5469 Q232.0469,79.4375 232.2656,79.4375 Q232.6406,79.4375 232.875,79.6953 Q233.1094,79.9531 233.1094,80.5625 L233.1094,82.0156 Q233.1094,82.625 232.875,82.8906 Q232.6406,83.1563 232.2656,83.1563 Q231.9219,83.1563 231.7188,82.9531 Q231.5156,82.7656 231.4063,82.25 Q231.3594,81.8906 231.1719,81.7031 Q230.8438,81.3281 230.2344,81.1094 Q229.625,80.8906 229,80.8906 Q228.2344,80.8906 227.6016,81.2188 Q226.9688,81.5469 226.4766,82.2969 Q225.9844,83.0469 225.9844,84.0781 L225.9844,85.1719 Q225.9844,86.4063 226.875,87.2266 Q227.7656,88.0469 229.3594,88.0469 Q230.2969,88.0469 230.9531,87.7969 Q231.3438,87.6406 231.7656,87.2031 Q232.0313,86.9375 232.1797,86.8594 Q232.3281,86.7813 232.5313,86.7813 Q232.8594,86.7813 233.1172,87.0391 Q233.375,87.2969 233.375,87.6406 Q233.375,87.9844 233.0313,88.3906 Q232.5313,88.9688 231.7344,89.2969 Q230.6563,89.75 229.3594,89.75 Q227.8438,89.75 226.6406,89.125 Q225.6563,88.625 224.9688,87.5547 Q224.2813,86.4844 224.2813,85.2031 L224.2813,84.0469 Q224.2813,82.7188 224.8984,81.5703 Q225.5156,80.4219 226.6094,79.8047 Q227.7031,79.1875 228.9375,79.1875 Q229.6719,79.1875 230.3203,79.3516 Q230.9688,79.5156 231.5156,79.875 Z "/><text fill="#000000" font-family="sans-serif" font-size="12" lengthAdjust="spacingAndGlyphs" textLength="39" x="242.75" y="88.4531">Engine</text><line style="stroke: #A80036; stroke-width: 1.5;" x1="214.75" x2="283.75" y1="100" y2="100"/><line style="stroke: #A80036; stroke-width: 1.5;" x1="214.75" x2="283.75" y1="108" y2="108"/><path d="M143.469,92 C164.452,92 188.604,92 208.502,92 " fill="none" style="stroke: #A80036; stroke-width: 1.0;"/><polygon fill="#A80036" points="213.73,92,204.73,88,208.73,92,204.73,96,213.73,92" style="stroke: #A80036; stroke-width: 1.0;"/><text fill="#000000" font-family="sans-serif" font-size="13" lengthAdjust="spacingAndGlyphs" textLength="21" x="167.25" y="84">has</text></g></svg>